HIERARCHY
ROOT Hips
{
	OFFSET -0.001795 -0.223333 0.028219
	CHANNELS 6 Xposition Yposition Zposition Zrotation Yrotation Xrotation 
	JOINT LeftUpLeg
	{
		OFFSET 0.069520 -0.091406 -0.006815
		CHANNELS 3 Zrotation Yrotation Xrotation
		JOINT LeftLeg
		{
			OFFSET 0.034277 -0.375199 -0.004496
			CHANNELS 3 Zrotation Yrotation Xrotation
			JOINT LeftFoot
			{
				OFFSET -0.013596 -0.397961 -0.043693
				CHANNELS 3 Zrotation Yrotation Xrotation
				JOINT LeftToe
				{
					OFFSET 0.026358 -0.055791 0.119288
					CHANNELS 3 Zrotation Yrotation Xrotation
					End Site
					{
						OFFSET 0.000000 0.000000 0.000000
					}
				}
			}
		}
	}
	JOINT RightUpLeg
	{
		OFFSET -0.067670 -0.090522 -0.004320
		CHANNELS 3 Zrotation Yrotation Xrotation
		JOINT RightLeg
		{
			OFFSET -0.038290 -0.382569 -0.008850
			CHANNELS 3 Zrotation Yrotation Xrotation
			JOINT RightFoot
			{
				OFFSET 0.015774 -0.398415 -0.042312
				CHANNELS 3 Zrotation Yrotation Xrotation
				JOINT RightToe
				{
					OFFSET -0.025372 -0.048144 0.123348
					CHANNELS 3 Zrotation Yrotation Xrotation
					End Site
					{
						OFFSET 0.000000 0.000000 0.000000
					}
				}
			}
		}
	}
	JOINT Spine
	{
		OFFSET -0.002533 0.108963 -0.026696
		CHANNELS 3 Zrotation Yrotation Xrotation
		JOINT Spine1
		{
			OFFSET 0.005487 0.135180 0.001092
			CHANNELS 3 Zrotation Yrotation Xrotation
			JOINT Spine2
			{
				OFFSET 0.001457 0.052922 0.025425
				CHANNELS 3 Zrotation Yrotation Xrotation
				JOINT Neck
				{
					OFFSET -0.002778 0.213870 -0.042857
					CHANNELS 3 Zrotation Yrotation Xrotation
					JOINT Head
					{
						OFFSET 0.005152 0.064970 0.051349
						CHANNELS 3 Zrotation Yrotation Xrotation
						End Site
						{
							OFFSET 0.000000 0.000000 0.000000
						}
					}
				}
				JOINT LeftShoulder
				{
					OFFSET 0.078845 0.121749 -0.034090
					CHANNELS 3 Zrotation Yrotation Xrotation
					JOINT LeftArm
					{
						OFFSET 0.090977 0.030469 -0.008868
						CHANNELS 3 Zrotation Yrotation Xrotation
						JOINT LeftForeArm
						{
							OFFSET 0.259612 -0.012772 -0.027456
							CHANNELS 3 Zrotation Yrotation Xrotation
							JOINT LeftHand
							{
								OFFSET 0.249234 0.008986 -0.001171
								CHANNELS 3 Zrotation Yrotation Xrotation
								End Site
								{
									OFFSET 0.000000 0.000000 0.000000
								}
							}
						}
					}
				}
				JOINT RightShoulder
				{
					OFFSET -0.081759 0.118833 -0.038615
					CHANNELS 3 Zrotation Yrotation Xrotation
					JOINT RightArm
					{
						OFFSET -0.096012 0.032551 -0.009143
						CHANNELS 3 Zrotation Yrotation Xrotation
						JOINT RightForeArm
						{
							OFFSET -0.253742 -0.013329 -0.021401
							CHANNELS 3 Zrotation Yrotation Xrotation
							JOINT RightHand
							{
								OFFSET -0.255298 0.007772 -0.005559
								CHANNELS 3 Zrotation Yrotation Xrotation
								End Site
								{
									OFFSET 0.000000 0.000000 0.000000
								}
							}
						}
					}
				}
			}
		}
	}
}
MOTION
Frames: 7
Frame Time: 0.050000
0.004831 0.944283 -0.005456 -3.120141 -55.013828 12.285664 10.420948 1.847625 -5.856899 -9.380856 2.262242 -4.211720 17.208758 25.662307 19.056316 0.000000 0.000000 0.000000 -2.738128 3.774584 -23.069746 -0.008217 0.637400 7.092252 6.728083 -0.568232 13.177783 0.000000 0.000000 0.000000 10.037075 -0.256248 22.094435 -1.197980 -0.522727 -15.145297 -5.384520 -11.583165 27.356109 13.176620 -11.282335 -11.207852 0.000000 0.000000 0.000000 0.101090 -22.992011 11.567818 -12.454680 -45.743736 3.766024 23.753792 -28.460287 -3.866854 0.000000 0.000000 0.000000 14.311694 1.585139 -10.769461 51.254344 14.228284 0.179651 49.311642 54.518396 15.867824 0.000000 0.000000 0.000000 
0.005799 0.944430 -0.005428 -3.416006 -55.404978 12.246043 10.379180 1.844715 -5.527119 -9.179418 2.208823 -4.417478 17.514130 26.067584 19.258165 0.000000 0.000000 0.000000 -2.500570 3.777877 -23.000723 -0.176138 0.676147 7.342525 7.145152 -0.132105 13.460064 0.000000 0.000000 0.000000 10.074441 -0.205618 22.396945 -0.922797 -0.611903 -14.957868 -5.360129 -11.677617 27.089014 12.628982 -10.950301 -10.399552 0.000000 0.000000 0.000000 1.192123 -23.138800 11.028850 -10.937835 -45.826954 3.519570 24.936054 -27.633150 -3.931036 0.000000 0.000000 0.000000 14.366937 1.969067 -10.712081 51.462332 14.756192 0.461286 48.663223 54.774583 15.556476 0.000000 0.000000 0.000000 
0.006373 0.944151 -0.005012 -3.353655 -55.787531 11.595599 10.342771 1.830492 -4.834040 -9.290642 2.237968 -4.752768 17.603128 26.239144 19.310920 0.000000 0.000000 0.000000 -2.403704 3.659308 -22.544194 -0.175741 0.713648 7.640723 7.037469 -0.368706 13.437354 0.000000 0.000000 0.000000 10.190031 -0.128246 22.868384 -0.582102 -0.720622 -14.904000 -5.758832 -11.910630 27.115970 12.464734 -10.901996 -10.521674 0.000000 0.000000 0.000000 2.249949 -23.550171 10.612829 -9.639959 -45.792967 3.321348 26.663986 -27.774396 -4.221620 0.000000 0.000000 0.000000 14.755967 2.500465 -10.886904 51.275362 15.194572 0.847915 47.600226 54.772830 14.964619 0.000000 0.000000 0.000000 
0.006793 0.944376 -0.004397 -3.473180 -56.738161 11.270508 10.118488 1.798929 -4.118012 -9.263778 2.253351 -5.005980 18.051886 26.902155 19.499226 0.000000 0.000000 0.000000 -2.205356 3.572301 -22.137149 -0.273808 0.732229 7.693329 7.224603 -0.337006 13.620028 0.000000 0.000000 0.000000 10.394832 -0.037086 23.245801 -0.436458 -0.781931 -15.121236 -6.280320 -12.050905 27.311343 11.449431 -10.396610 -10.350457 0.000000 0.000000 0.000000 3.691405 -23.738480 9.907411 -8.428158 -45.998311 3.306103 27.844400 -27.463359 -4.313101 0.000000 0.000000 0.000000 14.631307 3.134858 -10.816020 51.647690 15.841077 1.139014 47.158488 54.611017 14.395890 0.000000 0.000000 0.000000 
0.007163 0.944441 -0.003929 -3.193808 -57.449579 10.691693 9.875932 1.766108 -3.639098 -9.194421 2.261290 -5.019202 18.391158 27.290515 19.834601 0.000000 0.000000 0.000000 -2.127845 3.512256 -21.862994 -0.469092 0.758839 7.787389 7.463326 -0.119570 13.748693 0.000000 0.000000 0.000000 10.266922 0.062573 23.409492 -0.515971 -0.778627 -15.632497 -6.435673 -12.378154 27.936947 11.043123 -10.264682 -10.568147 0.000000 0.000000 0.000000 5.401140 -24.030542 9.117781 -7.179661 -46.436151 3.394229 28.761965 -25.727813 -4.104599 0.000000 0.000000 0.000000 14.378107 3.329521 -10.901592 52.302655 16.552874 1.299831 47.588796 54.014031 14.078578 0.000000 0.000000 0.000000 
0.007550 0.944712 -0.003922 -3.074029 -58.177013 10.250784 9.898673 1.799033 -3.109144 -9.341003 2.314311 -5.253217 18.429732 27.023286 20.431026 0.000000 0.000000 0.000000 -2.186681 3.419805 -21.506240 -0.433902 0.739391 7.602892 7.651034 -0.020753 13.905936 0.000000 0.000000 0.000000 10.233934 0.136862 23.481966 -0.226771 -0.860767 -16.201487 -7.296529 -12.792029 28.709317 10.185260 -9.928076 -10.824259 0.000000 0.000000 0.000000 7.502712 -24.364259 8.101628 -5.887140 -46.311024 3.462666 28.609795 -23.684123 -3.618075 0.000000 0.000000 0.000000 14.625807 3.927640 -11.281620 52.868113 16.758306 1.471323 49.308569 53.550293 14.338745 0.000000 0.000000 0.000000 
0.007979 0.945019 -0.004301 -2.986213 -58.715244 10.093402 9.782835 1.798343 -2.859271 -9.367502 2.330861 -5.444449 18.746446 27.311005 20.828922 0.000000 0.000000 0.000000 -2.094211 3.388254 -21.327870 -0.813941 0.729230 7.342601 7.942731 0.035365 14.265755 0.000000 0.000000 0.000000 9.976006 0.231709 23.624771 -0.088416 -0.889345 -17.068271 -7.455536 -13.267715 29.509995 9.079059 -9.441173 -11.258949 0.000000 0.000000 0.000000 9.081058 -24.547052 7.353821 -4.599534 -46.411131 3.487228 27.889245 -21.180464 -3.029125 0.000000 0.000000 0.000000 14.295849 4.266020 -11.370417 53.721361 17.393778 1.572679 51.308629 53.164207 14.652257 0.000000 0.000000 0.000000 
